<svg xmlns="http://www.w3.org/2000/svg" width="46" height="45" viewBox="0 0 46 45">
  <g id="SLOGO" transform="translate(-245 -346)">
    <path id="Path_29" data-name="Path 29" d="M-266.347,2679.849c0-.644-.255-2.023-2.925-1.987s-2.521,2.04-2.586,3.106c.01,2.109,0,5,0,5s-.184,7.384.971,9.683c2.283,4.544,5.863,7.257,12.2,7.457,5.949-.041,12.216-4.3,12.937-10.446a74.567,74.567,0,0,0,.2-12.855c-.037-1.229-.806-1.858-2.623-1.951a2.6,2.6,0,0,0-2.869,1.653c-.219.737.008,9.7-.2,11.8s-1.518,6.185-7.212,6.3-7.868-3.415-7.9-7.38S-266.344,2681.168-266.347,2679.849Z" transform="translate(526.046 -2328.123)" fill="#61ae8e"/>
    <path id="Path_30" data-name="Path 30" d="M-264.267,2771.143c1.16.872,1.782,5.367,7.452,5.428,7.4-.031,6.144-4.345,8.69-5.794,1.309-.746,3.664-.108,3.859,1.506.547,4.523-4.1,9.655-12.549,9.754s-12.125-7.479-11.814-9.628S-265.427,2770.271-264.267,2771.143Z" transform="translate(523.868 -2396.761)" fill="#61ae8e"/>
    <g id="Path_31" data-name="Path 31" transform="translate(245 346)" fill="none">
      <path d="M0,0H46V45H0Z" stroke="none"/>
      <path d="M 1 1 L 1 44 L 45 44 L 45 1 L 1 1 M 0 0 L 46 0 L 46 45 L 0 45 L 0 0 Z" stroke="none" fill="#a7c0b6"/>
    </g>
  </g>
</svg>
