<svg xmlns="http://www.w3.org/2000/svg" width="104.551" height="132.341" viewBox="0 0 104.551 132.341">
  <g id="LOGO" transform="translate(-130.131 -142.845)">
    <path id="Path_29" data-name="Path 29" d="M-250.094,2684.723c-.006-2.21-1-6.945-11.534-6.821s-9.943,7-10.2,10.663c.041,7.237,0,17.147,0,17.147s-.725,25.344,3.83,33.236c9,15.6,23.123,24.91,48.107,25.594,23.46-.139,48.175-14.758,51.016-35.854s.952-39.906.806-44.123-3.178-6.376-10.344-6.7-10.45,3.144-11.315,5.674.033,33.3-.783,40.514-5.987,21.229-28.44,21.636-31.026-11.721-31.144-25.329S-250.081,2689.252-250.094,2684.723Z" transform="translate(402 -2535)" fill="#61ae8e"/>
    <path id="Path_30" data-name="Path 30" d="M-251.182,2772.787c4.627,2.994,7.1,18.423,29.714,18.633,29.519-.1,24.5-14.914,34.648-19.888,5.221-2.56,14.609-.371,15.387,5.171,2.18,15.525-16.329,33.14-50.035,33.48s-48.346-25.67-47.106-33.048S-255.809,2769.793-251.182,2772.787Z" transform="translate(402.36 -2535)" fill="#61ae8e"/>
  </g>
</svg>
