<svg xmlns="http://www.w3.org/2000/svg" width="21.033" height="28.208" viewBox="0 0 21.033 28.208">
  <g id="Group_25" data-name="Group 25" transform="translate(-117.739 -355.174)">
    <path id="Path_32" data-name="Path 32" d="M-267.488,2679.435c0-.511-.2-1.605-2.32-1.577s-2,1.619-2.052,2.464c.008,1.673,0,3.964,0,3.964s-.146,5.857.771,7.682c1.811,3.6,4.652,5.757,9.678,5.916,4.72-.032,9.692-3.411,10.263-8.287a59.16,59.16,0,0,0,.162-10.2c-.029-.975-.639-1.474-2.081-1.548a2.065,2.065,0,0,0-2.276,1.311c-.174.585.007,7.7-.158,9.364s-1.2,4.906-5.721,5-6.242-2.709-6.265-5.854S-267.486,2680.482-267.488,2679.435Z" transform="translate(389.608 -2322.671)" fill="#61ae8e"/>
    <path id="Path_33" data-name="Path 33" d="M-265.172,2771c.921.692,1.414,4.258,5.912,4.307,5.873-.024,4.874-3.447,6.894-4.6,1.039-.592,2.907-.086,3.062,1.195.434,3.589-3.249,7.66-9.956,7.739s-9.619-5.933-9.373-7.638S-266.092,2770.312-265.172,2771Z" transform="translate(387.214 -2396.266)" fill="#61ae8e"/>
  </g>
</svg>
