<svg xmlns="http://www.w3.org/2000/svg" width="251.103" height="251" viewBox="0 0 251.103 251">
  <g id="CIRCLE" transform="translate(-61.993 -130)">
    <path id="Path_28" data-name="Path 28" d="M125.5,0A125.5,125.5,0,1,1,0,125.5,125.5,125.5,0,0,1,125.5,0Z" transform="translate(62 130)" fill="#e3ece9"/>
    <path id="Path_25" data-name="Path 25" d="M-90.458,2774.664s-16.258-.987-46.791,0-54.066,1.222-75.341,3.947c-49.825,6.381-77.168,21.578-77.168,21.578l-33.851,46.988,167.741,50.019Z" transform="translate(402 -2534)" fill="#7eebc1"/>
    <path id="Path_26" data-name="Path 26" d="M-108.045,2724.533s-36.837,5.851-56.452,35.087-48.359,45.223-48.359,45.223l-103.117,53,128.643,51.69s71.289-32.928,91.429-84.637S-108.045,2724.533-108.045,2724.533Z" transform="translate(402 -2535)" fill="#57c199"/>
    <path id="Path_27" data-name="Path 27" d="M-87.2,2775.777s-17.944,12.878-45.733,20.4-31.881,10.06-69.478,9.3-47.777-7.933-81.51-11.6-52.947-2.009-52.947-2.009-1.077,40.167,24.334,73.993c17.7,23.562,49.354,49.479,99.855,50.464,65.332,1.275,104.5-43.783,118.98-80.174C-81.234,2804.808-87.2,2775.777-87.2,2775.777Z" transform="translate(398.872 -2536.058)" fill="#479e7c"/>
  </g>
</svg>
